<?xml version="1.0" encoding="iso-8859-1"?>
<!-- Generator: Adobe Illustrator 19.0.0, SVG Export Plug-In . SVG Version: 6.00 Build 0)  -->
<svg version="1.1" id="Layer_1" xmlns="http://www.w3.org/2000/svg" xmlns:xlink="http://www.w3.org/1999/xlink" x="0px" y="0px"
	 viewBox="0 0 460.025 460.025" style="enable-background:new 0 0 460.025 460.025;" xml:space="preserve">
<path style="fill:#ABCB57;" d="M363.72,10.091c-17.237-10.009-37.326-12.684-56.564-7.526c-19.296,5.17-35.415,17.586-45.388,34.96
	c-15.021,26.167-12.461,57.757,3.938,80.91l-15.446,26.907l53.011,30.782l15.31-26.67c2.549,0.268,5.112,0.409,7.683,0.409
	c6.452,0,12.948-0.849,19.349-2.563c19.296-5.171,35.415-17.587,45.39-34.961C411.514,76.606,399.276,30.738,363.72,10.091z
	 M356.311,92.424c-4.636,8.075-12.111,13.842-21.051,16.237c-8.883,2.378-18.161,1.143-26.125-3.482
	c-16.576-9.625-22.263-31.041-12.676-47.741c4.635-8.075,12.11-13.841,21.05-16.236c2.954-0.792,5.95-1.184,8.929-1.184
	c5.979,0,11.88,1.578,17.196,4.665C360.211,54.308,365.898,75.725,356.311,92.424z"/>
<path style="fill:#D8D9DD;" d="M201.976,352.585l101.34-176.537l-53.011-30.782l-77.994,135.867
	c-6.803,11.851-86.856,147.044-32.01,178.892L201.976,352.585z"/>
<path style="opacity:0.3;fill:#5B5B5F;enable-background:new    ;" d="M363.72,10.092C346.484,0.084,326.396-2.59,307.158,2.564
	c-19.296,5.17-35.416,17.586-45.391,34.962c-15.02,26.167-12.459,57.755,3.94,80.908l-15.446,26.908l0,0l-77.949,135.79
	c-6.803,11.851-86.856,147.044-32.01,178.892l61.675-107.439l101.34-176.538l0,0l15.265-26.593c2.548,0.268,5.111,0.409,7.682,0.409
	c6.452,0,12.948-0.849,19.349-2.563c19.296-5.17,35.416-17.586,45.391-34.961C411.514,76.605,399.276,30.738,363.72,10.092z
	 M356.311,92.424c-4.636,8.076-12.112,13.843-21.052,16.238c-8.883,2.379-18.16,1.143-26.124-3.482
	c-16.575-9.625-22.263-31.041-12.677-47.74c4.636-8.076,12.112-13.843,21.052-16.238c2.953-0.791,5.95-1.183,8.928-1.183
	c5.979,0,11.88,1.577,17.196,4.665C360.211,54.309,365.897,75.726,356.311,92.424z"/>
<path style="fill:#ABCB57;" d="M209.764,145.342l-15.446-26.908c16.4-23.152,18.96-54.742,3.939-80.909
	c-9.974-17.374-26.093-29.79-45.389-34.961c-19.237-5.153-39.326-2.48-56.563,7.527C60.749,30.738,48.511,76.606,69.023,112.338
	c9.974,17.374,26.093,29.79,45.389,34.961c6.402,1.715,12.895,2.563,19.349,2.563c2.571,0,5.134-0.141,7.683-0.409l15.31,26.67
	L209.764,145.342z M124.765,108.662c-8.939-2.395-16.416-8.161-21.051-16.237c-9.586-16.699-3.899-38.116,12.677-47.741
	c5.316-3.087,11.218-4.665,17.196-4.665c2.978,0,5.976,0.392,8.929,1.184c8.939,2.395,16.416,8.161,21.051,16.237
	c9.586,16.699,3.899,38.115-12.678,47.74C142.923,109.804,133.645,111.04,124.765,108.662z"/>
<path style="fill:#D8D9DD;" d="M258.049,352.585l-101.34-176.537l53.011-30.782l77.994,135.868
	c6.803,11.851,86.856,147.044,32.01,178.892L258.049,352.585z"/>
<ellipse style="fill:#808083;" cx="231.33" cy="239.884" rx="18.837" ry="18.945"/>
<polygon style="opacity:0.4;fill:#5B5B5F;enable-background:new    ;" points="241.041,233.663 237.495,230.137 231.33,236.337 
	225.165,230.137 221.619,233.663 227.804,239.883 221.619,246.104 225.165,249.629 231.33,243.429 237.495,249.629 241.041,246.104 
	234.856,239.883 "/>
<g>
</g>
<g>
</g>
<g>
</g>
<g>
</g>
<g>
</g>
<g>
</g>
<g>
</g>
<g>
</g>
<g>
</g>
<g>
</g>
<g>
</g>
<g>
</g>
<g>
</g>
<g>
</g>
<g>
</g>
</svg>
